<?xml version="1.0" encoding="utf-8"?>
<!-- Generator: Adobe Illustrator 21.1.0, SVG Export Plug-In . SVG Version: 6.00 Build 0)  -->
<svg version="1.1" id="Layer_1" xmlns="http://www.w3.org/2000/svg" xmlns:xlink="http://www.w3.org/1999/xlink" x="0px" y="0px"
	 viewBox="0 0 1011 1007" style="enable-background:new 0 0 1011 1007;" xml:space="preserve">
<style type="text/css">
	.st0{fill:#FBB03B;}
</style>
<g>
	<g>
		<g>
			<g>
				<path class="st0" d="M741.3,675.4L287,221.1c-3-3-7.2-4.6-11.5-4.4c-4.3,0.2-8.3,2.3-11,5.6c-0.8,1-20.7,26-22.1,68.3
					c-1.8,54.4,26,110.9,82.9,167.7l113.8,113.8c9.8,9.8,22.9,15.2,36.7,15.2c13.9,0,26.9-5.4,36.7-15.2c0.8-0.8,1.7-0.9,2.3-0.9
					c0.6,0,1.5,0.2,2.3,0.9l18.4,18.4c0.7,0.7,0.4,2.5-0.2,3.9c-9,19.6-4.8,43.1,10.5,58.3l109.1,109.1
					c11.9,11.9,27.6,17.9,43.2,17.9c15.7,0,31.3-6,43.2-17.9C765.2,738,765.2,699.2,741.3,675.4z M719.9,740.4
					c-12,12-31.6,12-43.6,0L567.2,631.3c-6.4-6.4-8.1-16.1-4.4-24.3c6.1-13.4,3.8-28.3-5.9-38l-18.4-18.4
					c-6.3-6.3-14.8-9.8-23.7-9.8c-9,0-17.4,3.5-23.7,9.8c-4.1,4.1-9.5,6.3-15.3,6.3c-5.8,0-11.2-2.2-15.3-6.3L346.7,436.8
					c-88.1-88.1-78.4-152.2-67-180.2l440.1,440.1C731.9,708.8,731.9,728.4,719.9,740.4z"/>
			</g>
		</g>
		<g>
			<g>
				<path class="st0" d="M755,252.3c-5.9-5.9-15.5-5.9-21.4,0l-96.8,96.8c-5.9,5.9-5.9,15.5,0,21.4c3,3,6.8,4.4,10.7,4.4
					s7.8-1.5,10.7-4.4l96.8-96.8C761,267.8,761,258.2,755,252.3z"/>
			</g>
		</g>
		<g>
			<g>
				<path class="st0" d="M713.8,198.7c-5.9-5.9-15.5-5.9-21.4,0l-98.7,98.7c-15.1,15.1-24.1,34.3-24.5,52.7l-0.7,28.2l-27.5,27.5
					c-5.9,5.9-5.9,15.5,0,21.4c3,3,6.8,4.4,10.7,4.4c3.9,0,7.8-1.5,10.7-4.4l31.8-31.8c2.8-2.8,4.3-6.5,4.4-10.4l0.8-34.3
					c0.3-10.5,6.1-22.5,15.6-32l98.7-98.7C719.8,214.2,719.8,204.6,713.8,198.7z"/>
			</g>
		</g>
		<g>
			<g>
				<path class="st0" d="M454.6,617.7c-5.9-5.9-15.5-5.9-21.4,0L311.8,739.1c-5.8,5.8-13.6,9-21.8,9s-16-3.2-21.8-9
					c-5.8-5.8-9-13.6-9-21.8c0-8.2,3.2-16,9-21.8l117.1-117.1c5.9-5.9,5.9-15.5,0-21.4c-5.9-5.9-15.5-5.9-21.4,0L246.8,674.1
					c-11.5,11.5-17.9,26.9-17.9,43.2c0,16.3,6.4,31.7,17.9,43.2c11.5,11.5,26.9,17.9,43.2,17.9c16.3,0,31.7-6.4,43.2-17.9
					l121.3-121.3C460.5,633.3,460.5,623.7,454.6,617.7z"/>
			</g>
		</g>
		<g>
			<g>
				<path class="st0" d="M810.9,295.7c-5.9-5.9-15.5-5.9-21.4,0l-98.7,98.7c-9.4,9.4-21.4,14.8-32.3,14.7l-35.6-0.5
					c-4.1-0.1-8.1,1.5-11,4.4l-31.8,31.8c-5.9,5.9-5.9,15.5,0,21.4c3,3,6.8,4.4,10.7,4.4s7.8-1.5,10.7-4.4l27.2-27.2l29.2,0.4
					c19.2,0.3,38.9-8.3,54.2-23.6l98.7-98.7C816.8,311.3,816.8,301.7,810.9,295.7z"/>
			</g>
		</g>
	</g>
	<path class="st0" d="M1003.1,134.4c0-0.1,0-0.1,0-0.2V4.4H8.5v995.9h994.7V871.7c0-0.1,0-0.2,0-0.2V134.4z M943.7,871.7
		c-0.1,38.1-31.2,69.1-69.4,69.1h-737c-38.3,0-69.4-31.1-69.4-69.4v-737c0-38.3,31.1-69.4,69.4-69.4h737c38.2,0,69.2,31,69.4,69.1
		V871.7z"/>
</g>
</svg>
