<?xml version="1.0" encoding="utf-8"?>
<!-- Generator: Adobe Illustrator 21.1.0, SVG Export Plug-In . SVG Version: 6.00 Build 0)  -->
<svg version="1.1" id="Layer_1" xmlns="http://www.w3.org/2000/svg" xmlns:xlink="http://www.w3.org/1999/xlink" x="0px" y="0px"
	 viewBox="0 0 751 128" style="enable-background:new 0 0 751 128;" xml:space="preserve">
<style type="text/css">
	.st0{fill:#ED1C24;}
</style>
<g>
	<path class="st0" d="M28.9,110.7c-7-4.1-12.6-9.7-16.7-16.8C8.1,86.7,6,78.8,6,70.2c0-8.8,2-16.7,6-23.8c4-7.1,9.4-12.6,16.3-16.6
		c6.9-4,14.7-6,23.3-6c4.7,0,9.2,0.6,13.7,1.7c4.5,1.1,8.3,2.7,11.5,4.8l-3.5,20.1c-6.2-2.3-11.8-3.5-16.8-3.5c-6.9,0-12.2,2-15.9,6
		c-3.7,4-5.6,9.8-5.6,17.3c0,7.3,2,13.1,5.9,17.2c3.9,4.1,9.4,6.2,16.4,6.2c2.7,0,5.2-0.3,7.5-0.8c2.3-0.5,5.2-1.5,8.5-2.8l3.6,20.5
		c-7.5,4.4-15.7,6.6-24.6,6.6C43.7,116.8,35.9,114.8,28.9,110.7z"/>
	<path class="st0" d="M86.7,29.4l27.3-4l0,37.8c1.9-4.6,4.8-8.1,8.6-10.6c3.8-2.5,8.5-3.7,13.9-3.7c8.3,0,14.8,3,19.5,8.9
		c4.7,5.9,7.1,14.1,7.1,24.5l0,32.4l-27.2,0l0-35.1c0-3.7-0.8-6.6-2.4-8.5c-1.6-2-3.8-3-6.7-3c-2.1,0-4.1,0.7-6.1,2
		c-2,1.3-3.6,3.3-4.9,5.8c-1.3,2.5-1.9,5.4-1.9,8.5l0,30.3l-27.3,0L86.7,29.4z"/>
	<path class="st0" d="M272.8,113.5c-3.5-1.5-6.4-4-8.6-7.6c-2.2-3.5-4.2-8.6-6-15.1l-7.6,6.1l0,17.9h-27.5l0.1-85.3l27.5-4
		l-0.1,44.3l33.3-27.2l14.9,20.3l-20.8,14.5c1,6.6,2.5,11.1,4.5,13.7c1.9,2.6,4.8,3.9,8.6,3.9c1.6,0,3.4-0.3,5.6-0.8l-2.6,21.2
		c-2.6,0.3-5,0.4-7.3,0.4C280.9,115.8,276.3,115,272.8,113.5z"/>
	<path class="st0" d="M306,50.8l26,0l0,13.2c5-10,12.9-15,23.8-15c8.3,0,14.8,3,19.5,8.9c4.7,5.9,7.1,14.1,7.1,24.5l0,32.4l-27.2,0
		l0-35.1c0-3.7-0.8-6.6-2.4-8.5c-1.6-2-3.8-3-6.7-3c-2.1,0-4.1,0.7-6.1,2c-2,1.3-3.6,3.3-4.9,5.8c-1.3,2.5-1.9,5.4-1.9,8.5l0,30.3
		l-27.3,0L306,50.8z"/>
	<path class="st0" d="M404.3,45.3l-18.5,0V20.4l67.2,0l0,24.9l-18.5,0l0,69.4l-30.2,0L404.3,45.3z"/>
	<path class="st0" d="M510.5,50.8l26,0l0,13.2c5-10,12.9-15,23.8-15c8.3,0,14.8,3,19.5,8.9c4.7,5.9,7.1,14.1,7.1,24.5l0,32.4
		l-27.2,0l0-35.1c0-3.7-0.8-6.6-2.4-8.5c-1.6-2-3.8-3-6.7-3c-2.1,0-4.1,0.7-6.1,2c-2,1.3-3.6,3.3-4.9,5.8c-1.3,2.5-1.9,5.4-1.9,8.5
		v30.3l-27.3,0L510.5,50.8z"/>
	<path class="st0" d="M611.8,111.1c-4.8-3.1-8.6-7.2-11.3-12.4c-2.8-5.1-4.1-10.6-4.1-16.4c0-6.1,1.4-11.8,4.3-16.9
		c2.9-5.1,6.8-9.2,11.7-12.1c4.9-2.9,10.1-4.4,15.6-4.4c5,0,9.3,1,12.8,3.1c3.5,2.1,6.3,5.4,8.5,10l0-32.6l27.3-4l0,89.3l-27.3,0
		v-12c-4.1,8.7-11.2,13.1-21.4,13.1C621.9,115.8,616.6,114.2,611.8,111.1z M645.5,91.4c2.5-2.6,3.7-5.6,3.7-9.1v-0.5
		c0-3.4-1.3-6.3-3.9-8.7c-2.6-2.5-5.6-3.7-8.9-3.7c-3.6,0-6.7,1.3-9.1,3.8c-2.5,2.5-3.7,5.6-3.7,9.1c0,3.6,1.3,6.7,3.8,9.2
		c2.5,2.5,5.5,3.8,9,3.8C640,95.3,643,94,645.5,91.4z"/>
	<path class="st0" d="M466.4,36.3c2.8,2.5,6.2,3.8,10.3,3.8c3.9,0,7.3-1.3,10.2-3.8c2.9-2.5,4.4-5.7,4.4-9.5c0-3.5-1.4-6.6-4.3-9.2
		c-2.9-2.6-6.3-3.9-10.3-3.9c-3.8,0-7.2,1.3-10.1,3.8c-2.9,2.5-4.4,5.6-4.4,9.3C462.2,30.7,463.6,33.8,466.4,36.3z"/>
	<path class="st0" d="M501.5,93.2c-1.8,1-3.6,1.6-5.3,1.6c-1.7,0-3.1-0.5-4.2-1.6c-1.1-1.1-1.6-2.6-1.6-4.6v-2.7h0l0-40.8L463,49.2
		v0.6h0l0,39.9c0,8,2,14.4,6.1,19c4.1,4.7,9.7,7,17,7c3.3,0,6.5-0.4,9.5-1.2c3.1-0.8,5.5-1.9,7.4-3.4L501.5,93.2z"/>
	<g>
		<path class="st0" d="M178.8,36.3c-2.8-2.5-4.2-5.7-4.2-9.4c0-3.7,1.5-6.8,4.4-9.3c2.9-2.5,6.3-3.8,10.1-3.8c4,0,7.4,1.3,10.3,3.9
			c2.9,2.6,4.3,5.7,4.3,9.2c0,3.8-1.5,6.9-4.4,9.5c-2.9,2.5-6.3,3.8-10.2,3.8C185,40.2,181.6,38.9,178.8,36.3z"/>
		<path class="st0" d="M214,93.2c-1.8,1-3.6,1.6-5.3,1.6c-1.7,0-3.1-0.5-4.2-1.6c-1.1-1.1-1.6-2.6-1.6-4.6v-2.7h0l0-40.8l-27.5,4.1
			l0,0.6h0l0,39.9c0,8,2,14.4,6.1,19c4.1,4.7,9.7,7,17,7c3.3,0,6.5-0.4,9.5-1.2c3.1-0.8,5.5-1.9,7.4-3.4L214,93.2z"/>
	</g>
	<path class="st0" d="M717,63.5V50.8l-27.3,0v64l27.3,0l0-33.7c0-3.8,1.9-6.6,5.8-8.4c3.8-1.8,9.9-2.7,18.1-2.7V48.7
		C723.2,47.4,718.1,60.1,717,63.5z"/>
</g>
</svg>
